<svg width="73" height="73" viewBox="0 0 73 73" fill="none" xmlns="http://www.w3.org/2000/svg">
<path fill-rule="evenodd" clip-rule="evenodd" d="M5 18.0244V27.9942L34.3667 44.9701C35.1 45.394 35.5517 46.1767 35.5517 47.0238L35.5519 54.4263C37.5059 55.2521 38.8773 57.1884 38.8773 59.4454C38.8773 62.4528 36.4423 64.8908 33.4386 64.8908C30.435 64.8908 28 62.4528 28 59.4454C28 57.3936 29.1334 55.6069 30.8075 54.6785L30.8073 48.3926L5 33.4742V54.073L36.1804 72.0975L43.6278 67.7923V33.3414C43.6278 32.4943 44.0795 31.7115 44.8128 31.2876L51.0062 27.7075C51.0021 27.6206 51 27.5333 51 27.4454C51 24.438 53.435 22 56.4387 22C59.4424 22 61.8774 24.438 61.8774 27.4454C61.8774 30.4528 59.4424 32.8908 56.4387 32.8908C55.2589 32.8908 54.1669 32.5147 53.2756 31.8757L48.3722 34.7101V65.0497L67.3608 54.073L67.3598 18.0238L59.5504 13.5095L29.158 31.0778C28.4235 31.5024 27.5182 31.5024 26.7837 31.0778L20.0834 27.2047C19.3005 27.6418 18.3986 27.8908 17.4386 27.8908C14.435 27.8908 12 25.4528 12 22.4454C12 19.438 14.435 17 17.4386 17C20.4423 17 22.8773 19.438 22.8773 22.4454C22.8773 22.7365 22.8545 23.0223 22.8105 23.3011L27.9709 26.284L54.8104 10.7694L36.1804 0L5 18.0244Z" fill="url(#paint0_linear)"/>
<defs>
<linearGradient id="paint0_linear" x1="13.3007" y1="50.6971" x2="55.6961" y2="0.0518786" gradientUnits="userSpaceOnUse">
<stop stop-color="#4BBFCC"/>
<stop offset="0.0001" stop-color="#33CBD5"/>
<stop offset="1" stop-color="#C6E989"/>
</linearGradient>
</defs>
</svg>
